<svg width="11" height="16" viewBox="0 0 11 16" fill="none" xmlns="http://www.w3.org/2000/svg">
<path d="M1.7955 16V12.9524H0V11.4958H1.7955V9.5014H0V7.79832H1.7955V0H5.67542C7.4778 0 8.81238 0.395892 9.67917 1.18768C10.5597 1.97946 11 3.12979 11 4.63866C11 6.16246 10.5253 7.35761 9.57598 8.22409C8.62664 9.07563 7.23014 9.5014 5.38649 9.5014H3.65291V11.4958H7.05816V12.9524H3.65291V16H1.7955ZM3.65291 7.79832H5.1182C6.37023 7.79832 7.34021 7.57423 8.02814 7.12605C8.72983 6.67787 9.08068 5.87115 9.08068 4.70588C9.08068 3.69001 8.79174 2.93557 8.21388 2.44258C7.63602 1.94958 6.73483 1.70308 5.51032 1.70308H3.65291V7.79832Z" fill="#FCFCFC"/>
</svg>
